<svg width="20" height="20" viewBox="0 0 20 20" fill="none" xmlns="http://www.w3.org/2000/svg">
<path d="M0 10C0 4.47715 4.47715 0 10 0C15.5228 0 20 4.47715 20 10C20 15.5228 15.5228 20 10 20C4.47715 20 0 15.5228 0 10Z" fill="#F3BA2C"/>
<g clip-path="url(#clip0_221_2352)">
<path d="M7.28107 8.88291L9.99997 6.164L12.7202 8.88409L14.3022 7.30209L9.99997 3L5.69919 7.3008L7.28113 8.8828L7.28107 8.88291ZM3 10L4.58205 8.41772L6.16399 9.99966L4.58194 11.5817L3 10ZM7.28107 11.1173L9.99997 13.836L12.7201 11.116L14.3029 12.6971L14.3022 12.698L9.99997 17L5.69919 12.6992L5.69695 12.697L7.28124 11.1171L7.28107 11.1173ZM13.836 10.0007L15.418 8.41862L16.9999 10.0006L15.418 11.5826L13.836 10.0007Z" fill="white"/>
<path d="M11.6052 9.99909H11.6058L10.0007 8.3938L8.81419 9.57993L8.67789 9.71629L8.39677 9.99747L8.39453 9.99965L8.39677 10.002L10.0007 11.6061L11.606 10.0008L11.6067 9.99988L11.6053 9.99909" fill="white"/>
</g>
<defs>
<clipPath id="clip0_221_2352">
<rect width="14" height="14" fill="white" transform="translate(3 3)"/>
</clipPath>
</defs>
</svg>
