<svg width="20" height="16" viewBox="0 0 20 16" fill="none" xmlns="http://www.w3.org/2000/svg">
<path id="Vector" d="M16.9419 1.69043C15.6279 1.08883 14.2407 0.662045 12.8158 0.420959C12.6208 0.769533 12.4444 1.12817 12.2872 1.49537C10.7694 1.26664 9.22586 1.26664 7.70802 1.49537C7.55081 1.12821 7.37438 0.769575 7.17947 0.420959C5.75362 0.66408 4.36551 1.09188 3.05017 1.69357C0.438871 5.55703 -0.26901 9.32453 0.0849306 13.0385C1.61417 14.1684 3.32583 15.0277 5.14549 15.5791C5.55523 15.028 5.91779 14.4433 6.22934 13.8314C5.6376 13.6104 5.06647 13.3377 4.52256 13.0165C4.66571 12.9127 4.80571 12.8057 4.94099 12.7019C6.52365 13.4462 8.25105 13.8321 9.99998 13.8321C11.7489 13.8321 13.4763 13.4462 15.059 12.7019C15.1958 12.8136 15.3358 12.9206 15.4774 13.0165C14.9324 13.3382 14.3603 13.6114 13.7675 13.8329C14.0786 14.4446 14.4412 15.0288 14.8513 15.5791C16.6726 15.0299 18.3855 14.171 19.915 13.0401C20.3303 8.73306 19.2056 5.00016 16.9419 1.69043ZM6.67766 10.7545C5.69135 10.7545 4.8765 9.85937 4.8765 8.75823C4.8765 7.65708 5.66303 6.75414 6.67452 6.75414C7.686 6.75414 8.49456 7.65708 8.47725 8.75823C8.45995 9.85937 7.68285 10.7545 6.67766 10.7545ZM13.3223 10.7545C12.3344 10.7545 11.5227 9.85937 11.5227 8.75823C11.5227 7.65708 12.3092 6.75414 13.3223 6.75414C14.3354 6.75414 15.1376 7.65708 15.1203 8.75823C15.103 9.85937 14.3275 10.7545 13.3223 10.7545Z" fill="#4B5563"/>
</svg>
