<svg width="303" height="256" viewBox="0 0 303 256" fill="none" xmlns="http://www.w3.org/2000/svg">
<g filter="url(#filter0_d_151_1480)">
<g clip-path="url(#clip0_151_1480)">
<path d="M212.385 74.7142C212.385 74.7142 231.109 43.6847 222.55 39.4048C213.99 35.1248 201.15 43.6847 201.15 43.6847C201.15 43.6847 209.71 13.7252 192.59 13.7252C175.47 13.7252 171.19 30.8449 171.19 30.8449C171.19 30.8449 164.955 -4.66137 141.231 5.16535C126.405 11.307 119.831 26.565 141.231 69.3643" fill="#4B5563"/>
<path d="M211.7 78.1586C211.7 78.1586 230.425 47.1292 221.865 42.8492C213.305 38.5693 200.465 47.1292 200.465 47.1292C200.465 47.1292 209.025 17.1697 191.906 17.1697C174.786 17.1697 170.506 34.2894 170.506 34.2894C170.506 34.2894 164.27 -1.21691 140.546 8.60981C125.721 14.7515 119.147 30.0094 140.546 72.8087" stroke="#3A3A3A" stroke-width="8.55986" stroke-miterlimit="10" stroke-linecap="round" stroke-linejoin="round"/>
<path d="M177.665 244.556C177.665 244.556 313.431 239.906 245.548 109.706C245.548 109.706 227.446 58.5555 177.665 58.5555C163.618 58.5555 152.096 61.8877 142.687 66.879C118.752 79.5828 108.506 103.028 105.257 109.706C100.731 119.006 32.848 235.256 177.665 244.556Z" fill="white"/>
<path d="M136.972 130.954C141.7 130.954 145.532 127.122 145.532 122.394C145.532 117.667 141.7 113.834 136.972 113.834C132.245 113.834 128.413 117.667 128.413 122.394C128.413 127.122 132.245 130.954 136.972 130.954Z" fill="#3A3A3A"/>
<path d="M214.012 130.954C218.739 130.954 222.571 127.122 222.571 122.394C222.571 117.667 218.739 113.834 214.012 113.834C209.284 113.834 205.452 117.667 205.452 122.394C205.452 127.122 209.284 130.954 214.012 130.954Z" fill="#3A3A3A"/>
<path d="M175.496 145.096C175.496 145.096 248.593 141.035 175.496 218.193C175.496 218.193 102.399 145.096 175.496 145.096Z" fill="#A6A6A6"/>
<path d="M175.585 144.707C175.585 144.707 255.685 140.257 175.585 224.807C175.585 224.807 95.4853 144.707 175.585 144.707Z" fill="#A6A6A6" stroke="#3A3A3A" stroke-width="8.55986" stroke-miterlimit="10" stroke-linecap="round" stroke-linejoin="round"/>
<path d="M105.142 108.473C105.142 108.473 123.902 56.8829 175.492 56.8829C227.082 56.8829 245.842 108.473 245.842 108.473C316.191 239.792 175.492 244.482 175.492 244.482C175.492 244.482 34.7926 239.792 105.142 108.473Z" stroke="#3A3A3A" stroke-width="8.55986" stroke-miterlimit="10" stroke-linecap="round" stroke-linejoin="round"/>
</g>
<circle cx="116" cy="124" r="52.28" fill="#4B5563" stroke="#767676" stroke-width="8.56"/>
<circle cx="116" cy="124" r="35.28" fill="white" stroke="#767676" stroke-width="8.56"/>
<circle cx="106.5" cy="133.5" r="21.5" fill="#3A3A3A"/>
<circle cx="100.5" cy="140.5" r="6.5" fill="white"/>
<path d="M12 230C12 228.067 13.567 226.5 15.5 226.5H31.4399C33.6769 226.5 35.7793 225.431 37.0969 223.623L40.7016 218.677C48.5823 207.864 64.6525 207.689 72.7669 218.328L76.8988 223.745C78.223 225.481 80.2813 226.5 82.4647 226.5H103.5C105.433 226.5 107 228.067 107 230C107 231.933 105.433 233.5 103.5 233.5H82.4647C80.2813 233.5 78.223 232.481 76.8988 230.745L72.7669 225.328C64.6525 214.689 48.5823 214.864 40.7016 225.677L37.0969 230.623C35.7793 232.431 33.6769 233.5 31.4399 233.5H15.5C13.567 233.5 12 231.933 12 230Z" fill="#797979"/>
<path fill-rule="evenodd" clip-rule="evenodd" d="M30.9313 218.5H15.5C9.14873 218.5 4 223.649 4 230C4 236.351 9.14873 241.5 15.5 241.5H31.4399C36.2336 241.5 40.7386 239.209 43.562 235.335L47.1667 230.389C51.8951 223.901 61.5373 223.796 66.4059 230.179L70.5379 235.597C73.3752 239.317 77.786 241.5 82.4647 241.5H103.5C109.851 241.5 115 236.351 115 230C115 223.649 109.851 218.5 103.5 218.5H82.9597L79.1278 213.476C67.7677 198.582 45.2694 198.827 34.2364 213.965L30.9313 218.5ZM82.4647 226.5C80.2813 226.5 78.223 225.481 76.8988 223.745L72.7669 218.328C64.6525 207.689 48.5823 207.864 40.7016 218.677L37.0969 223.623C35.7793 225.431 33.6769 226.5 31.4399 226.5H15.5C13.567 226.5 12 228.067 12 230C12 231.933 13.567 233.5 15.5 233.5H31.4399C33.6769 233.5 35.7793 232.431 37.0969 230.623L40.7016 225.677C41.8669 224.078 43.2114 222.712 44.6827 221.578C51.7148 216.162 61.6452 216.073 68.7737 221.373C70.2398 222.463 71.5874 223.781 72.7669 225.328L76.8988 230.745C78.223 232.481 80.2813 233.5 82.4647 233.5H103.5C105.433 233.5 107 231.933 107 230C107 228.067 105.433 226.5 103.5 226.5H82.4647Z" fill="#3A3A3A"/>
<path fill-rule="evenodd" clip-rule="evenodd" d="M16.5 235.5V225.5H24.5V235.5H16.5Z" fill="#3A3A3A"/>
<path fill-rule="evenodd" clip-rule="evenodd" d="M51 220.5V210.5H59V220.5H51Z" fill="#3A3A3A"/>
<path fill-rule="evenodd" clip-rule="evenodd" d="M61.5755 220.994L66.7437 212.433L73.5924 216.567L68.4243 225.128L61.5755 220.994Z" fill="#3A3A3A"/>
<path fill-rule="evenodd" clip-rule="evenodd" d="M72.5755 229.994L77.7437 221.433L84.5924 225.567L79.4243 234.128L72.5755 229.994Z" fill="#3A3A3A"/>
<path fill-rule="evenodd" clip-rule="evenodd" d="M87.8178 234.639L87.3696 224.649L95.3616 224.291L95.8098 234.281L87.8178 234.639Z" fill="#3A3A3A"/>
<path fill-rule="evenodd" clip-rule="evenodd" d="M30.4288 234.707L26.2888 225.605L33.571 222.293L37.7111 231.395L30.4288 234.707Z" fill="#3A3A3A"/>
<path fill-rule="evenodd" clip-rule="evenodd" d="M43.2495 226.898L36.7031 219.339L42.7507 214.102L49.297 221.661L43.2495 226.898Z" fill="#3A3A3A"/>
</g>
<defs>
<filter id="filter0_d_151_1480" x="0" y="0" width="303" height="256" filterUnits="userSpaceOnUse" color-interpolation-filters="sRGB">
<feFlood flood-opacity="0" result="BackgroundImageFix"/>
<feColorMatrix in="SourceAlpha" type="matrix" values="0 0 0 0 0 0 0 0 0 0 0 0 0 0 0 0 0 0 127 0" result="hardAlpha"/>
<feOffset dy="4"/>
<feGaussianBlur stdDeviation="2"/>
<feComposite in2="hardAlpha" operator="out"/>
<feColorMatrix type="matrix" values="0 0 0 0 0 0 0 0 0 0 0 0 0 0 0 0 0 0 0.25 0"/>
<feBlend mode="normal" in2="BackgroundImageFix" result="effect1_dropShadow_151_1480"/>
<feBlend mode="normal" in="SourceGraphic" in2="effect1_dropShadow_151_1480" result="shape"/>
</filter>
<clipPath id="clip0_151_1480">
<rect width="248" height="248" fill="white" transform="translate(51)"/>
</clipPath>
</defs>
</svg>
