<svg xmlns="http://www.w3.org/2000/svg" width="32" height="32" viewBox="0 0 32 32" fill="none">
  <path fill-rule="evenodd" clip-rule="evenodd" d="M13.068 3.73647C9.24093 4.64804 6.09052 7.3046 4.50415 10.8188C6.06893 10.0904 7.92275 9.5508 9.91369 9.19541C10.6285 7.18318 11.6785 5.31618 13.068 3.73647ZM3.40382 15.4864C3.4491 14.3568 3.64301 13.2654 3.96654 12.2314C4.00892 12.2206 4.0506 12.2041 4.09058 12.1818C5.58021 11.3497 7.46725 10.723 9.55661 10.308C9.0753 11.9808 8.81448 13.7323 8.77191 15.4864H3.40382ZM9.79948 15.4864C9.84627 13.6479 10.1443 11.8238 10.6907 10.1065C12.2276 9.86455 13.8497 9.73082 15.4863 9.70767V15.4864H9.79948ZM16.5136 15.4864V9.70766C18.1989 9.73149 19.8688 9.87258 21.4462 10.1284C22.006 11.8395 22.3114 13.6561 22.3595 15.4864H16.5136ZM16.5136 8.68029C18.0437 8.70136 19.5733 8.81664 21.0448 9.02792C20.2087 6.9566 18.9777 5.08022 17.357 3.57653L17.4501 3.47625C17.1412 3.44087 16.8289 3.41665 16.5136 3.40402V8.68029ZM23.3871 15.4864C23.3434 13.742 23.0772 12.0006 22.5865 10.3368C24.619 10.7517 26.454 11.3687 27.9096 12.1818C27.9495 12.2041 27.991 12.2205 28.0332 12.2312C28.3568 13.2653 28.5507 14.3567 28.596 15.4864H23.3871ZM22.2185 9.21928C24.1592 9.57475 25.9655 10.1064 27.4956 10.8186C25.9138 7.31472 22.7771 4.6635 18.9652 3.74448C20.3994 5.32851 21.4825 7.20105 22.2185 9.21928ZM11.0792 9.01039C12.5125 8.81027 13.9992 8.70078 15.4863 8.6803V3.40401C15.1733 3.41656 14.8632 3.44051 14.5565 3.47548L14.6479 3.57101C13.0811 5.07112 11.8897 6.94313 11.0792 9.01039ZM8.77191 16.5137H3.40381C3.44291 17.4895 3.59294 18.4368 3.84163 19.3433C3.92606 19.3434 4.01164 19.3645 4.09058 19.4086C5.5518 20.2248 7.3954 20.8434 9.43726 21.2584C9.03205 19.7177 8.81083 18.1168 8.77191 16.5137ZM9.76461 22.368C7.7372 21.9954 5.85693 21.4303 4.28594 20.6679C5.7887 24.4358 9.05678 27.3084 13.0683 28.2638C11.5787 26.5704 10.4792 24.5467 9.76461 22.368ZM10.9161 22.5568C12.3996 22.7717 13.9427 22.8888 15.4863 22.9101V28.5962C15.1732 28.5837 14.8631 28.5597 14.5563 28.5247L14.648 28.429C12.9725 26.8249 11.7262 24.7955 10.9161 22.5568ZM15.4863 21.8827C13.8031 21.8589 12.1352 21.7181 10.5596 21.4629C10.0965 19.8728 9.8424 18.1993 9.79948 16.5137H15.4863V21.8827ZM16.5136 22.9101V28.5962C16.8289 28.5836 17.1413 28.5593 17.4503 28.5239L17.357 28.4235C19.0903 26.8154 20.3778 24.781 21.2133 22.5378C19.6902 22.7648 18.1022 22.8882 16.5136 22.9101ZM21.5814 21.4397C19.9644 21.7096 18.2471 21.8582 16.5136 21.8827V16.5137H22.3595C22.3154 18.1908 22.0554 19.8563 21.5814 21.4397ZM22.3721 22.3425C21.6367 24.5279 20.5025 26.5577 18.965 28.2558C22.9611 27.2924 26.2152 24.4254 27.7138 20.6681C26.1782 21.4133 24.3472 21.9699 22.3721 22.3425ZM28.1582 19.3433C28.0739 19.3435 27.9884 19.3645 27.9096 19.4086C26.4834 20.2053 24.6928 20.8137 22.7092 21.2282C23.1218 19.6971 23.3472 18.1066 23.3871 16.5137H28.596C28.5569 17.4895 28.4069 18.4368 28.1582 19.3433ZM2.36627 16.0001C2.36627 8.47046 8.47026 2.36647 15.9999 2.36647C23.5296 2.36647 29.6335 8.47046 29.6335 16.0001C29.6335 23.5298 23.5296 29.6337 15.9999 29.6337C8.47026 29.6337 2.36627 23.5298 2.36627 16.0001Z" fill="#12131A"/>
</svg>