<svg xmlns="http://www.w3.org/2000/svg" width="24" height="24" viewBox="0 0 24 24" fill="none">
  <path fill-rule="evenodd" clip-rule="evenodd" d="M12.0006 1.16319C6.01575 1.16319 1.16406 6.01488 1.16406 11.9997C1.16406 17.9845 6.01575 22.8363 12.0006 22.8363C17.9854 22.8363 22.8371 17.9845 22.8371 11.9997C22.8371 6.01488 17.9854 1.16319 12.0006 1.16319ZM3.16406 11.9997C3.16406 7.11945 7.12032 3.16319 12.0006 3.16319C16.8808 3.16319 20.8371 7.11945 20.8371 11.9997C20.8371 16.88 16.8808 20.8363 12.0006 20.8363C7.12032 20.8363 3.16406 16.88 3.16406 11.9997ZM13.0004 7.19999C13.0004 6.64771 12.5527 6.19999 12.0004 6.19999C11.4482 6.19999 11.0004 6.64771 11.0004 7.19999V12C11.0004 12.2652 11.1058 12.5196 11.2933 12.7071L14.4933 15.9071C14.8839 16.2976 15.517 16.2976 15.9076 15.9071C16.2981 15.5166 16.2981 14.8834 15.9076 14.4929L13.0004 11.5858V7.19999Z" fill="#3E4A5C"/>
</svg>