<svg width="150" height="48" viewBox="0 0 150 48" fill="none" xmlns="http://www.w3.org/2000/svg">
<g clip-path="url(#clip0_34_1814)">
<path d="M31.2359 14.4608C31.2359 14.4608 34.86 8.4551 33.2032 7.62672C31.5465 6.79835 29.0614 8.4551 29.0614 8.4551C29.0614 8.4551 30.7181 2.65648 27.4046 2.65648C24.0911 2.65648 23.2628 5.96998 23.2628 5.96998C23.2628 5.96998 22.0558 -0.902208 17.4642 0.999737C14.5947 2.18845 13.3223 5.1416 17.4642 13.4253" fill="#F98FF4"/>
<path d="M31.1034 15.1274C31.1034 15.1274 34.7275 9.12172 33.0708 8.29335C31.4141 7.46497 28.9289 9.12172 28.9289 9.12172C28.9289 9.12172 30.5857 3.32311 27.2722 3.32311C23.9587 3.32311 23.1303 6.6366 23.1303 6.6366C23.1303 6.6366 21.9234 -0.235582 17.3317 1.66636C14.4622 2.85508 13.1898 5.80823 17.3317 14.092" stroke="black" stroke-width="1.65675" stroke-miterlimit="10" stroke-linecap="round" stroke-linejoin="round"/>
<path d="M24.5159 47.3334C24.5159 47.3334 50.7932 46.4334 37.6546 21.2334C37.6546 21.2334 34.1509 11.3334 24.5159 11.3334C21.7971 11.3334 19.567 11.9783 17.746 12.9444C13.1133 15.4032 11.1303 19.941 10.5014 21.2334C9.62546 23.0334 -3.5132 45.5334 24.5159 47.3334Z" fill="white"/>
<path d="M16.6399 25.3461C17.5549 25.3461 18.2966 24.6043 18.2966 23.6893C18.2966 22.7743 17.5549 22.0326 16.6399 22.0326C15.7249 22.0326 14.9832 22.7743 14.9832 23.6893C14.9832 24.6043 15.7249 25.3461 16.6399 25.3461Z" fill="black"/>
<path d="M31.5508 25.3461C32.4658 25.3461 33.2075 24.6043 33.2075 23.6893C33.2075 22.7743 32.4658 22.0326 31.5508 22.0326C30.6358 22.0326 29.894 22.7743 29.894 23.6893C29.894 24.6043 30.6358 25.3461 31.5508 25.3461Z" fill="black"/>
<path d="M24.0962 28.0833C24.0962 28.0833 38.244 27.2973 24.0962 42.2311C24.0962 42.2311 9.94848 28.0833 24.0962 28.0833Z" fill="#25CEBE"/>
<path d="M24.1136 28.0079C24.1136 28.0079 39.6168 27.1466 24.1136 43.5112C24.1136 43.5112 8.61036 28.0079 24.1136 28.0079Z" stroke="black" stroke-width="1.65675" stroke-miterlimit="10" stroke-linecap="round" stroke-linejoin="round"/>
<path d="M10.4792 20.9948C10.4792 20.9948 14.1102 11.0096 24.0953 11.0096C34.0804 11.0096 37.7114 20.9948 37.7114 20.9948C51.3275 46.4114 24.0953 47.3192 24.0953 47.3192C24.0953 47.3192 -3.13682 46.4114 10.4792 20.9948Z" stroke="black" stroke-width="1.65675" stroke-miterlimit="10" stroke-linecap="round" stroke-linejoin="round"/>
</g>
<path d="M127.714 36.1539L127.714 36.1527C126.785 34.4591 126.331 32.3274 126.331 29.7764C126.331 27.6581 126.636 25.7951 127.255 24.1945L127.255 24.1932C127.884 22.5858 128.749 21.2344 129.855 20.1465C130.956 19.0626 132.23 18.2525 133.675 17.7181C135.117 17.17 136.651 16.897 138.277 16.897C139.385 16.897 140.436 17.0297 141.427 17.2969C142.437 17.5653 143.335 17.9852 144.118 18.5591C144.923 19.1238 145.552 19.8506 146.003 20.7354C146.459 21.6298 146.68 22.6819 146.68 23.8805C146.68 25.1526 146.446 26.2216 145.953 27.0651L145.952 27.0676C145.468 27.8805 144.804 28.5233 143.967 28.9931L143.962 28.9955L143.962 28.9955C143.143 29.4392 142.218 29.7692 141.19 29.9882L141.186 29.989L141.186 29.989C140.191 30.1885 139.151 30.3418 138.065 30.4494C137.509 30.5572 136.856 30.6489 136.109 30.7251L136.102 30.7258L136.102 30.7257C135.353 30.7868 134.623 30.8402 133.914 30.8861L133.907 30.8865L133.907 30.8865C133.211 30.917 132.665 30.9325 132.271 30.9325C131.878 30.9325 131.712 30.9978 131.663 31.0384C131.631 31.0647 131.563 31.1587 131.563 31.4447C131.563 31.7736 131.644 32.1826 131.823 32.6783C131.998 33.1502 132.251 33.6191 132.582 34.0849L127.714 36.1539ZM127.714 36.1539C128.642 37.8288 129.962 39.0742 131.668 39.8815C133.363 40.684 135.356 41.0791 137.637 41.0791M127.714 36.1539L137.637 41.0791M137.637 41.0791C138.938 41.0791 140.15 40.9553 141.271 40.7059C142.386 40.473 143.368 40.1451 144.212 39.7189C145.054 39.309 145.728 38.8197 146.218 38.2441C146.725 37.6648 147 37.0341 147 36.358C147 35.6899 146.844 35.1204 146.404 34.8098C146.033 34.5245 145.547 34.4021 144.985 34.4021C144.354 34.4021 143.662 34.5691 142.915 34.8847C142.216 35.1707 141.423 35.4649 140.535 35.7674C139.679 36.0442 138.727 36.1846 137.677 36.1846C136.461 36.1846 135.453 36.0428 134.644 35.7692M137.637 41.0791L134.644 35.7692M134.644 35.7692C133.881 35.4921 133.192 34.9406 132.582 34.0851L134.644 35.7692ZM140.872 21.6954L140.872 21.6954L140.875 21.6979C141.537 22.2144 141.888 22.9971 141.888 24.109C141.888 25.0461 141.617 25.7452 141.107 26.2482C140.583 26.763 139.885 27.1417 138.997 27.3737C138.092 27.5947 137.112 27.7063 136.055 27.7063C134.937 27.7063 134.045 27.6835 133.375 27.6385C132.729 27.5943 132.309 27.4861 132.069 27.3468C131.891 27.2236 131.783 27.0283 131.783 26.6913C131.783 25.903 131.952 25.169 132.289 24.4849C132.632 23.789 133.09 23.165 133.663 22.6122C134.234 22.0624 134.886 21.636 135.622 21.3319L135.622 21.332L135.627 21.3298C136.361 21.012 137.11 20.8545 137.877 20.8545C139.207 20.8545 140.191 21.1494 140.872 21.6954Z" fill="black" stroke="black" stroke-width="0.666667"/>
<path d="M110.678 48.0001C109.023 48.0001 107.601 47.8554 106.413 47.5659C105.226 47.2917 104.251 46.9337 103.49 46.4919C102.743 46.0653 102.189 45.6006 101.828 45.0979C101.481 44.6103 101.308 44.1457 101.308 43.7039C101.308 43.3077 101.415 42.9726 101.628 42.6983C101.855 42.4393 102.149 42.2413 102.509 42.1042C102.883 41.9671 103.303 41.8985 103.771 41.8985C104.144 41.8985 104.578 41.9899 105.072 42.1727C105.579 42.3555 106.153 42.5612 106.794 42.7897C107.448 43.0335 108.182 43.2392 108.996 43.4068C109.824 43.5744 110.738 43.6353 111.739 43.5896C112.821 43.5744 113.735 43.3458 114.482 42.904C115.23 42.4622 115.837 41.8756 116.304 41.1444C116.772 40.4283 117.112 39.6437 117.326 38.7905C117.539 37.9526 117.646 37.1071 117.646 36.2539C117.646 36.1015 117.633 35.972 117.606 35.8654C117.593 35.7588 117.566 35.675 117.526 35.614C117.486 35.5378 117.426 35.4998 117.346 35.4998C117.199 35.4998 116.959 35.6597 116.625 35.9797C116.304 36.2844 115.864 36.6348 115.303 37.0309C114.756 37.427 114.069 37.7774 113.241 38.0821C112.427 38.402 111.459 38.562 110.338 38.562C108.229 38.562 106.46 38.1583 105.032 37.3508C103.604 36.5434 102.523 35.3855 101.788 33.8772C101.068 32.3537 100.707 30.5331 100.707 28.4154C100.707 26.511 101.028 24.8733 101.668 23.5021C102.309 22.1157 103.183 20.9731 104.291 20.0742C105.412 19.1753 106.68 18.5126 108.095 18.086C109.524 17.6595 111.012 17.4462 112.56 17.4462C114.242 17.4462 115.751 17.7433 117.085 18.3374C118.42 18.9164 119.548 19.7695 120.469 20.8969C121.403 22.0243 122.111 23.3955 122.591 25.0104C123.085 26.6101 123.332 28.4307 123.332 30.4722C123.332 33.5192 123.059 36.1472 122.511 38.3563C121.977 40.5654 121.177 42.3784 120.109 43.7953C119.054 45.2274 117.739 46.2862 116.164 46.9718C114.589 47.6574 112.761 48.0001 110.678 48.0001ZM111.579 34.6771C112.5 34.6771 113.368 34.5171 114.182 34.1972C114.996 33.862 115.71 33.3973 116.324 32.8031C116.939 32.1937 117.419 31.4777 117.766 30.655C118.126 29.8323 118.307 28.9258 118.307 27.9355C118.307 26.732 118.073 25.6655 117.606 24.7362C117.152 23.7916 116.491 23.0527 115.624 22.5195C114.756 21.971 113.695 21.6968 112.44 21.6968C111.693 21.6968 110.918 21.8034 110.118 22.0167C109.317 22.2148 108.576 22.5728 107.895 23.0908C107.214 23.5935 106.66 24.2791 106.233 25.1475C105.819 26.0159 105.613 27.1128 105.613 28.4383C105.613 29.6876 105.853 30.7845 106.333 31.7291C106.827 32.6736 107.521 33.4049 108.416 33.9229C109.31 34.4257 110.365 34.6771 111.579 34.6771Z" fill="black"/>
<path d="M85.7937 41.015C84.2453 41.015 82.7503 40.8169 81.3087 40.4208C79.8805 40.0247 78.5991 39.3924 77.4645 38.524C76.3432 37.6556 75.4556 36.5282 74.8015 35.1418C74.1475 33.7402 73.8204 32.0339 73.8204 30.0228C73.8204 27.8138 74.1341 25.8865 74.7615 24.2411C75.4022 22.5805 76.2832 21.2017 77.4044 20.1048C78.5257 18.9926 79.8204 18.1623 81.2887 17.6139C82.7704 17.0502 84.3521 16.7683 86.034 16.7683C87.5557 16.7683 89.044 16.9892 90.4989 17.431C91.9539 17.8729 93.262 18.5661 94.4233 19.5106C95.5846 20.4552 96.5056 21.6816 97.1864 23.1899C97.8805 24.6829 98.2275 26.4883 98.2275 28.606C98.2275 30.2057 97.9405 31.7444 97.3666 33.2222C96.8059 34.7 95.985 36.0255 94.9038 37.1986C93.836 38.3564 92.5345 39.2782 90.9995 39.9637C89.4778 40.6646 87.7426 41.015 85.7937 41.015ZM85.6135 35.9645C86.975 35.9645 88.1297 35.7284 89.0774 35.2561C90.0251 34.7686 90.7926 34.1363 91.3799 33.3593C91.9806 32.5671 92.4144 31.7063 92.6814 30.777C92.9617 29.8476 93.1018 28.9259 93.1018 28.0118C93.1018 26.7321 92.8816 25.6504 92.4411 24.7667C92.014 23.8679 91.44 23.1442 90.7192 22.5957C90.0117 22.0473 89.2175 21.6512 88.3365 21.4074C87.4556 21.1484 86.5546 21.0189 85.6335 21.0189C84.4322 21.0189 83.2976 21.316 82.2298 21.9102C81.1619 22.4891 80.2943 23.3727 79.6269 24.5611C78.9728 25.7342 78.6458 27.2196 78.6458 29.0173C78.6458 30.4799 78.9061 31.7368 79.4267 32.788C79.9606 33.824 80.7481 34.6162 81.7893 35.1647C82.8304 35.6979 84.1052 35.9645 85.6135 35.9645Z" fill="black"/>
<path d="M59.8768 39.0191C58.6889 39.0191 57.5409 38.9048 56.433 38.6763C55.3385 38.463 54.3574 38.1735 53.4898 37.8079C52.6221 37.427 51.9347 36.9852 51.4275 36.4824C50.9202 35.9644 50.6666 35.4084 50.6666 34.8142C50.6666 34.3114 50.7667 33.9153 50.967 33.6259C51.1672 33.3364 51.4408 33.1307 51.7879 33.0088C52.1349 32.8869 52.502 32.826 52.8891 32.826C53.1427 32.826 53.5231 32.9479 54.0304 33.1917C54.5509 33.4202 55.1916 33.6563 55.9525 33.9001C56.7133 34.1438 57.5943 34.2657 58.5954 34.2657C59.6499 34.2657 60.571 34.22 61.3585 34.1286C62.1594 34.0372 62.8268 33.862 63.3607 33.603C63.8946 33.3288 64.2884 32.9631 64.542 32.5061C64.809 32.0338 64.9425 31.432 64.9425 30.7007C64.9425 30.0151 64.789 29.4057 64.482 28.8725C64.175 28.3393 63.7478 27.8517 63.2005 27.4099C62.6533 26.9681 62.0059 26.5568 61.2584 26.1759C60.5242 25.7798 59.7233 25.3837 58.8557 24.9876C57.8012 24.5153 56.8134 24.0125 55.8924 23.4793C54.9848 22.946 54.1839 22.3595 53.4898 21.7196C52.809 21.0798 52.2751 20.3561 51.888 19.5486C51.5142 18.7412 51.3274 17.8194 51.3274 16.7835C51.3274 15.6256 51.561 14.6277 52.0281 13.7898C52.4953 12.9366 53.1227 12.2205 53.9102 11.6416C54.7111 11.0627 55.5988 10.6056 56.5732 10.2705C57.5609 9.93528 58.5687 9.69914 59.5965 9.56202C60.6243 9.40967 61.5921 9.3335 62.4998 9.3335C63.6344 9.3335 64.6889 9.43252 65.6633 9.63058C66.651 9.8134 67.5187 10.08 68.2662 10.4304C69.027 10.7656 69.6143 11.1541 70.0281 11.5959C70.4553 12.0377 70.6688 12.51 70.6688 13.0128C70.6688 13.4546 70.5754 13.8278 70.3885 14.1325C70.2016 14.422 69.9614 14.6353 69.6677 14.7724C69.3741 14.9095 69.047 14.9781 68.6866 14.9781C68.433 14.9781 68.0726 14.8486 67.6054 14.5896C67.1516 14.3154 66.5643 14.0488 65.8435 13.7898C65.1227 13.5155 64.2283 13.3784 63.1605 13.3784C62.4931 13.3784 61.8324 13.4317 61.1783 13.5384C60.5242 13.645 59.9302 13.8355 59.3963 14.1097C58.8624 14.3687 58.4352 14.7267 58.1149 15.1838C57.7945 15.6256 57.6344 16.1969 57.6344 16.8977C57.6344 17.5681 57.7745 18.1622 58.0548 18.6802C58.3485 19.183 58.7489 19.64 59.2562 20.0514C59.7767 20.4475 60.3841 20.8284 61.0782 21.194C61.7723 21.5597 62.5265 21.9253 63.3407 22.2909C64.4219 22.7937 65.4497 23.3422 66.4241 23.9363C67.3985 24.5305 68.2595 25.1932 69.007 25.9245C69.7678 26.6406 70.3618 27.448 70.789 28.3469C71.2294 29.2458 71.4497 30.2513 71.4497 31.3634C71.4497 32.7803 71.1494 33.9839 70.5487 34.9742C69.9614 35.9492 69.1405 36.7338 68.086 37.328C67.0315 37.9221 65.8034 38.3487 64.4019 38.6077C63.0003 38.882 61.492 39.0191 59.8768 39.0191Z" fill="black"/>
<defs>
<clipPath id="clip0_34_1814">
<rect width="48" height="48" fill="white"/>
</clipPath>
</defs>
</svg>
