<svg width="100" height="32" viewBox="0 0 100 32" fill="none" xmlns="http://www.w3.org/2000/svg">
<g clip-path="url(#clip0_34_1783)">
<path d="M20.8239 9.64057C20.8239 9.64057 23.24 5.63677 22.1355 5.08452C21.031 4.53227 19.3743 5.63677 19.3743 5.63677C19.3743 5.63677 20.4788 1.77103 18.2698 1.77103C16.0608 1.77103 15.5085 3.98002 15.5085 3.98002C15.5085 3.98002 14.7039 -0.601431 11.6428 0.666532C9.72978 1.45901 8.88153 3.42778 11.6428 8.95026" fill="#F98FF4"/>
<path d="M20.7357 10.085C20.7357 10.085 23.1517 6.08123 22.0472 5.52898C20.9427 4.97673 19.286 6.08123 19.286 6.08123C19.286 6.08123 20.3905 2.21549 18.1815 2.21549C15.9725 2.21549 15.4203 4.42448 15.4203 4.42448C15.4203 4.42448 14.6156 -0.156973 11.5545 1.11099C9.64153 1.90347 8.79327 3.87223 11.5545 9.39472" stroke="black" stroke-width="1.1045" stroke-miterlimit="10" stroke-linecap="round" stroke-linejoin="round"/>
<path d="M16.344 31.5556C16.344 31.5556 33.8622 30.9556 25.1031 14.1556C25.1031 14.1556 22.7674 7.5556 16.344 7.5556C14.5315 7.5556 13.0448 7.98556 11.8308 8.6296C8.7423 10.2688 7.42026 13.294 7.00099 14.1556C6.41705 15.3556 -2.34205 30.3556 16.344 31.5556Z" fill="white"/>
<path d="M11.0934 16.8974C11.7034 16.8974 12.1979 16.4029 12.1979 15.7929C12.1979 15.1829 11.7034 14.6884 11.0934 14.6884C10.4834 14.6884 9.98889 15.1829 9.98889 15.7929C9.98889 16.4029 10.4834 16.8974 11.0934 16.8974Z" fill="black"/>
<path d="M21.0338 16.8974C21.6438 16.8974 22.1383 16.4029 22.1383 15.7929C22.1383 15.1829 21.6438 14.6884 21.0338 14.6884C20.4238 14.6884 19.9293 15.1829 19.9293 15.7929C19.9293 16.4029 20.4238 16.8974 21.0338 16.8974Z" fill="black"/>
<path d="M16.0644 18.7219C16.0644 18.7219 25.4962 18.198 16.0644 28.1538C16.0644 28.1538 6.63252 18.7219 16.0644 18.7219Z" fill="#25CEBE"/>
<path d="M16.0757 18.6718C16.0757 18.6718 26.4112 18.0976 16.0757 29.0073C16.0757 29.0073 5.74024 18.6718 16.0757 18.6718Z" stroke="black" stroke-width="1.1045" stroke-miterlimit="10" stroke-linecap="round" stroke-linejoin="round"/>
<path d="M6.98625 13.9965C6.98625 13.9965 9.40688 7.33978 16.0636 7.33978C22.7204 7.33978 25.141 13.9965 25.141 13.9965C34.2184 30.941 16.0636 31.5461 16.0636 31.5461C16.0636 31.5461 -2.09113 30.941 6.98625 13.9965Z" stroke="black" stroke-width="1.1045" stroke-miterlimit="10" stroke-linecap="round" stroke-linejoin="round"/>
</g>
<path d="M85.1424 24.1018L85.1428 24.1025C85.7612 25.2192 86.641 26.0494 87.7783 26.5877C88.9087 27.1226 90.2373 27.386 91.7577 27.386C92.6254 27.386 93.4333 27.3035 94.1805 27.1373C94.9239 26.9819 95.5783 26.7634 96.1412 26.4792C96.7025 26.206 97.1517 25.8798 97.4787 25.4961C97.8167 25.1099 97.9999 24.6894 97.9999 24.2387C97.9999 23.7932 97.8956 23.4136 97.6025 23.2065C97.3554 23.0163 97.0312 22.9347 96.6564 22.9347C96.2357 22.9347 95.7744 23.046 95.2763 23.2565C94.8103 23.4471 94.2816 23.6433 93.6898 23.8449C93.1192 24.0294 92.4847 24.1231 91.7844 24.1231C90.9737 24.1231 90.3016 24.0285 89.7622 23.8461C89.2539 23.6614 88.7947 23.2937 88.3881 22.7234C88.167 22.4128 87.9988 22.1001 87.8818 21.7855C87.7626 21.455 87.7085 21.1824 87.7085 20.9631C87.7085 20.7725 87.7539 20.7098 87.775 20.6923C87.8077 20.6652 87.9182 20.6216 88.1804 20.6216C88.4433 20.6216 88.8074 20.6113 89.2713 20.5909L89.2713 20.591L89.2759 20.5907C89.7488 20.5601 90.2351 20.5245 90.7346 20.4838L90.7346 20.4838L90.739 20.4834C91.2373 20.4326 91.6724 20.3715 92.0435 20.2996C92.7673 20.2279 93.4608 20.1256 94.1239 19.9927L94.1239 19.9927L94.1265 19.9921C94.8118 19.8461 95.4286 19.6261 95.9747 19.3303L95.9747 19.3303L95.9776 19.3287C96.5359 19.0155 96.9783 18.587 97.3012 18.0451L97.3022 18.0434C97.6306 17.4811 97.7863 16.7684 97.7863 15.9203C97.7863 15.1213 97.6389 14.4198 97.3349 13.8236C97.0343 13.2337 96.6149 12.7491 96.0785 12.3727C95.5565 11.9901 94.9576 11.7101 94.2845 11.5312C93.6235 11.3531 92.9233 11.2647 92.1848 11.2647C91.1008 11.2647 90.0776 11.4466 89.1168 11.812C88.1532 12.1683 87.3035 12.7084 86.5695 13.431C85.8327 14.1563 85.2559 15.0572 84.8366 16.1288L84.8363 16.1296C84.4238 17.1967 84.2206 18.4387 84.2206 19.8509C84.2206 21.5516 84.523 22.9727 85.1424 24.1018ZM93.9146 14.4636L93.9146 14.4636L93.9168 14.4653C94.3576 14.8096 94.5922 15.3313 94.5922 16.0726C94.5922 16.6973 94.4113 17.1634 94.0712 17.4987C93.7217 17.8419 93.2563 18.0944 92.6643 18.2491C92.0611 18.3965 91.4077 18.4709 90.7032 18.4709C89.958 18.4709 89.363 18.4556 88.9163 18.4257C88.4858 18.3962 88.2056 18.3241 88.0459 18.2312C87.9275 18.149 87.8553 18.0188 87.8553 17.7942C87.8553 17.2687 87.968 16.7793 88.1928 16.3232C88.4215 15.8593 88.7264 15.4433 89.1088 15.0748C89.4891 14.7082 89.9238 14.424 90.4143 14.2213L90.4143 14.2213L90.4177 14.2198C90.907 14.008 91.4065 13.903 91.9178 13.903C92.8042 13.903 93.4602 14.0996 93.9146 14.4636Z" fill="black" stroke="black" stroke-width="0.444444"/>
<path d="M73.7854 32.0001C72.682 32.0001 71.7343 31.9036 70.9423 31.7106C70.1503 31.5278 69.5007 31.2891 68.9935 30.9945C68.4951 30.7102 68.1258 30.4004 67.8856 30.0652C67.6542 29.7402 67.5385 29.4304 67.5385 29.1359C67.5385 28.8718 67.6097 28.6483 67.7521 28.4655C67.9034 28.2929 68.0991 28.1608 68.3394 28.0694C68.5886 27.978 68.8689 27.9323 69.1803 27.9323C69.4295 27.9323 69.7187 27.9932 70.048 28.1151C70.3861 28.237 70.7688 28.3741 71.1959 28.5265C71.6319 28.689 72.1214 28.8261 72.6642 28.9378C73.2159 29.0495 73.8255 29.0902 74.4929 29.0597C75.2137 29.0495 75.8233 28.8972 76.3216 28.6026C76.8199 28.3081 77.2248 27.9171 77.5363 27.4295C77.8477 26.9522 78.0746 26.4291 78.217 25.8603C78.3594 25.3017 78.4306 24.738 78.4306 24.1692C78.4306 24.0677 78.4217 23.9813 78.4039 23.9102C78.395 23.8391 78.3772 23.7833 78.3505 23.7426C78.3238 23.6919 78.2838 23.6665 78.2304 23.6665C78.1325 23.6665 77.9723 23.7731 77.7498 23.9864C77.5363 24.1895 77.2426 24.4231 76.8689 24.6872C76.504 24.9513 76.0457 25.1849 75.494 25.388C74.9512 25.6013 74.306 25.708 73.5585 25.708C72.1525 25.708 70.9734 25.4388 70.0213 24.9005C69.0691 24.3622 68.3483 23.5903 67.8589 22.5848C67.3783 21.5691 67.1381 20.3554 67.1381 18.9436C67.1381 17.674 67.3516 16.5821 67.7788 15.668C68.2059 14.7438 68.7888 13.982 69.5274 13.3828C70.2749 12.7835 71.1203 12.3417 72.0635 12.0573C73.0157 11.7729 74.0079 11.6307 75.0402 11.6307C76.1614 11.6307 77.167 11.8288 78.0568 12.2249C78.9467 12.6109 79.6987 13.1796 80.3127 13.9312C80.9356 14.6828 81.4072 15.5969 81.7276 16.6736C82.0568 17.74 82.2215 18.9537 82.2215 20.3147C82.2215 22.3461 82.039 24.0981 81.6742 25.5708C81.3182 27.0436 80.7843 28.2522 80.0724 29.1968C79.3694 30.1515 78.4929 30.8574 77.4428 31.3145C76.3928 31.7715 75.1736 32.0001 73.7854 32.0001ZM74.3861 23.118C75.0001 23.118 75.5785 23.0114 76.1214 22.7981C76.6642 22.5746 77.1403 22.2648 77.5496 21.8687C77.959 21.4625 78.2793 20.9851 78.5107 20.4366C78.751 19.8882 78.8711 19.2838 78.8711 18.6236C78.8711 17.8213 78.7154 17.1103 78.4039 16.4907C78.1013 15.861 77.6609 15.3684 77.0824 15.0129C76.504 14.6473 75.7966 14.4645 74.9601 14.4645C74.4617 14.4645 73.9456 14.5356 73.4117 14.6778C72.8778 14.8098 72.3839 15.0485 71.93 15.3938C71.4762 15.729 71.1069 16.186 70.8222 16.765C70.5463 17.3439 70.4084 18.0752 70.4084 18.9588C70.4084 19.7917 70.5685 20.523 70.8889 21.1527C71.2181 21.7824 71.6809 22.2699 72.2771 22.6152C72.8733 22.9504 73.5763 23.118 74.3861 23.118Z" fill="black"/>
<path d="M57.1957 27.3433C56.1634 27.3433 55.1668 27.2112 54.2057 26.9472C53.2535 26.6831 52.3993 26.2616 51.6429 25.6826C50.8954 25.1037 50.3036 24.3521 49.8676 23.4278C49.4315 22.4934 49.2135 21.3559 49.2135 20.0152C49.2135 18.5425 49.4226 17.2576 49.8409 16.1607C50.268 15.0536 50.8553 14.1344 51.6028 13.4032C52.3503 12.6617 53.2135 12.1082 54.1924 11.7425C55.1801 11.3667 56.2346 11.1788 57.3559 11.1788C58.3703 11.1788 59.3625 11.3261 60.3325 11.6207C61.3025 11.9152 62.1746 12.3773 62.9487 13.007C63.7229 13.6368 64.337 14.4544 64.7908 15.4599C65.2535 16.4553 65.4849 17.6588 65.4849 19.0706C65.4849 20.1371 65.2936 21.1629 64.9109 22.1481C64.5372 23.1333 63.9899 24.0169 63.2691 24.799C62.5572 25.5709 61.6896 26.1854 60.6662 26.6425C59.6518 27.1097 58.4949 27.3433 57.1957 27.3433ZM57.0756 23.9763C57.9832 23.9763 58.753 23.8189 59.3848 23.504C60.0166 23.179 60.5283 22.7575 60.9198 22.2395C61.3203 21.7114 61.6095 21.1375 61.7875 20.5179C61.9743 19.8984 62.0678 19.2839 62.0678 18.6745C62.0678 17.8213 61.9209 17.1002 61.6273 16.5111C61.3425 15.9119 60.9599 15.4294 60.4793 15.0638C60.0077 14.6981 59.4782 14.4341 58.8909 14.2716C58.3036 14.0989 57.7029 14.0126 57.0889 14.0126C56.288 14.0126 55.5316 14.2106 54.8197 14.6067C54.1078 14.9927 53.5294 15.5818 53.0845 16.374C52.6484 17.1561 52.4304 18.1463 52.4304 19.3448C52.4304 20.3199 52.6039 21.1578 52.951 21.8586C53.3069 22.5493 53.832 23.0774 54.5261 23.4431C55.2202 23.7986 56.07 23.9763 57.0756 23.9763Z" fill="black"/>
<path d="M39.918 26.0127C39.126 26.0127 38.3607 25.9365 37.6221 25.7841C36.8924 25.642 36.2383 25.449 35.6599 25.2052C35.0815 24.9513 34.6232 24.6568 34.2851 24.3216C33.9469 23.9763 33.7778 23.6055 33.7778 23.2094C33.7778 22.8742 33.8446 22.6102 33.9781 22.4172C34.1115 22.2242 34.294 22.0871 34.5253 22.0058C34.7567 21.9246 35.0014 21.884 35.2595 21.884C35.4286 21.884 35.6822 21.9652 36.0203 22.1277C36.3674 22.2801 36.7945 22.4375 37.3017 22.6C37.809 22.7625 38.3963 22.8438 39.0637 22.8438C39.7667 22.8438 40.3807 22.8133 40.9057 22.7524C41.4397 22.6914 41.8846 22.5746 42.2406 22.402C42.5965 22.2191 42.859 21.9754 43.0281 21.6707C43.2061 21.3558 43.2951 20.9546 43.2951 20.4671C43.2951 20.01 43.1927 19.6038 42.9881 19.2483C42.7834 18.8928 42.4986 18.5678 42.1338 18.2732C41.7689 17.9787 41.3373 17.7045 40.839 17.4506C40.3496 17.1865 39.8156 16.9224 39.2372 16.6583C38.5342 16.3435 37.8757 16.0083 37.2617 15.6528C36.6566 15.2973 36.1227 14.9063 35.6599 14.4797C35.2061 14.0531 34.8501 13.5707 34.5921 13.0324C34.3429 12.4941 34.2183 11.8796 34.2183 11.1889C34.2183 10.417 34.374 9.75175 34.6855 9.19313C34.997 8.62436 35.4152 8.14699 35.9402 7.76103C36.4742 7.37508 37.0659 7.07038 37.7155 6.84693C38.374 6.62348 39.0459 6.46605 39.7311 6.37464C40.4163 6.27307 41.0615 6.22229 41.6666 6.22229C42.423 6.22229 43.126 6.28831 43.7756 6.42034C44.4341 6.54223 45.0125 6.71997 45.5109 6.95357C46.0181 7.17702 46.4096 7.43602 46.6855 7.73056C46.9703 8.02511 47.1126 8.33997 47.1126 8.67514C47.1126 8.96968 47.0503 9.21852 46.9258 9.42166C46.8012 9.61464 46.641 9.75683 46.4452 9.84824C46.2495 9.93965 46.0314 9.98536 45.7912 9.98536C45.6221 9.98536 45.3818 9.89903 45.0704 9.72636C44.7678 9.54354 44.3763 9.3658 43.8957 9.19313C43.4152 9.01031 42.819 8.9189 42.1071 8.9189C41.6621 8.9189 41.2217 8.95445 40.7856 9.02555C40.3496 9.09664 39.9536 9.2236 39.5976 9.40642C39.2417 9.57909 38.9569 9.81777 38.7433 10.1225C38.5298 10.417 38.423 10.7979 38.423 11.2651C38.423 11.712 38.5164 12.1081 38.7033 12.4534C38.8991 12.7886 39.166 13.0933 39.5042 13.3675C39.8512 13.6316 40.2561 13.8855 40.7189 14.1293C41.1816 14.3731 41.6844 14.6168 42.2272 14.8606C42.948 15.1958 43.6332 15.5614 44.2828 15.9575C44.9324 16.3536 45.5064 16.7954 46.0047 17.283C46.512 17.7603 46.908 18.2986 47.1927 18.8979C47.4864 19.4971 47.6332 20.1675 47.6332 20.9089C47.6332 21.8535 47.433 22.6559 47.0325 23.3161C46.641 23.9661 46.0937 24.4892 45.3907 24.8853C44.6877 25.2814 43.869 25.5658 42.9347 25.7384C42.0003 25.9213 40.9947 26.0127 39.918 26.0127Z" fill="black"/>
<defs>
<clipPath id="clip0_34_1783">
<rect width="32" height="32" fill="white"/>
</clipPath>
</defs>
</svg>
