<svg width="12" height="12" viewBox="0 0 12 12" fill="none" xmlns="http://www.w3.org/2000/svg">
<g clip-path="url(#clip0_225_558)">
<path d="M6.70471 8.71771C6.19784 8.83939 5.66825 8.82914 5.16647 8.68792C4.66469 8.54671 4.20747 8.27925 3.83846 7.91108C3.34987 7.44436 3.03584 6.82441 2.94863 6.15438C2.86142 5.48435 3.00629 4.80467 3.35912 4.22843C3.59073 3.85279 3.86985 3.50861 4.18957 3.20442C5.20381 2.19384 7.0662 0.354962 7.0662 0.354962C5.68154 0.0800844 4.2442 0.348592 3.05217 1.10482C1.86013 1.86105 1.00481 3.047 0.663543 4.41681C0.321865 5.78649 0.519938 7.23512 1.21676 8.46281C1.91358 9.69051 3.05579 10.6033 4.40695 11.0121L6.70471 8.71771Z" fill="black"/>
<path d="M5.28959 2.77542C5.7964 2.6535 6.32602 2.66364 6.82779 2.80486C7.32957 2.94609 7.78672 3.21368 8.15553 3.58205C9.16061 4.58744 9.35693 6.07949 8.63121 7.25921C8.39918 7.6351 8.12011 7.97983 7.80076 8.28505C6.78622 9.2941 4.92383 11.1342 4.92383 11.1342C6.30973 11.4118 7.74931 11.1448 8.94344 10.3886C10.1376 9.63235 10.9944 8.44513 11.3359 7.07358C11.6779 5.70213 11.4788 4.25165 10.7798 3.02314C10.0807 1.79464 8.93556 0.882435 7.58186 0.47583L5.28959 2.77542Z" fill="black"/>
</g>
<defs>
<clipPath id="clip0_225_558">
<rect width="11" height="11" fill="white" transform="translate(0.5 0.25)"/>
</clipPath>
</defs>
</svg>
