<svg xmlns="http://www.w3.org/2000/svg" width="24" height="24" viewBox="0 0 24 24" fill="none">
  <path fill-rule="evenodd" clip-rule="evenodd" d="M4.92455 4.89953C4.97289 4.9685 6.09239 6.59798 7.41234 8.52057C8.73229 10.4432 9.95312 12.2211 10.1253 12.4717C10.2975 12.7222 10.4384 12.9322 10.4384 12.9383C10.4384 12.9445 10.3742 13.0235 10.2959 13.114C10.2175 13.2045 9.9968 13.4606 9.80541 13.6831C9.61401 13.9056 9.29136 14.2806 9.08841 14.5165C8.88547 14.7524 8.52843 15.1675 8.29498 15.439C8.06155 15.7105 7.64177 16.1985 7.36214 16.5236C6.49728 17.529 6.37248 17.6742 5.71412 18.441C5.36258 18.8504 5.02548 19.2419 4.96502 19.311C4.90456 19.38 4.85509 19.4437 4.85509 19.4526C4.85509 19.4629 5.07589 19.4686 5.47719 19.4686H6.09928L6.78321 18.6716C7.15938 18.2332 7.53045 17.8018 7.6078 17.7127C7.77509 17.5203 9.05083 16.0359 9.15806 15.9089C9.19912 15.8603 9.25876 15.7912 9.29059 15.7552C9.32244 15.7192 9.57342 15.4276 9.84835 15.1072C10.1233 14.7868 10.3557 14.5168 10.365 14.5072C10.3742 14.4976 10.5197 14.3283 10.6884 14.1309C10.857 13.9336 11.0003 13.7721 11.0066 13.7721C11.013 13.7721 11.8794 15.0265 12.932 16.5597C13.9845 18.0928 14.8645 19.3744 14.8875 19.4076L14.9293 19.468L17.0632 19.4683C18.818 19.4686 19.1956 19.4649 19.1889 19.4474C19.1818 19.4288 18.1594 17.9376 15.5365 14.12C13.6484 11.3718 13.3973 11.0025 13.4045 10.9838C13.4115 10.9656 13.6687 10.6648 15.3595 8.69724C15.6495 8.35975 16.0493 7.89427 16.248 7.66285C16.4466 7.43143 16.6471 7.19838 16.6936 7.14498C16.7401 7.09157 16.9845 6.80755 17.2367 6.51383C17.4889 6.2201 17.9177 5.721 18.1896 5.40473C18.4614 5.08846 18.6938 4.81719 18.706 4.8019C18.7269 4.77573 18.6914 4.77411 18.0963 4.77411H17.4645L17.1834 5.10182C16.8094 5.53797 16.1332 6.32446 15.9412 6.54671C15.8564 6.64491 15.7506 6.76833 15.7061 6.82095C15.6616 6.87358 15.5737 6.9753 15.5109 7.04699C15.4481 7.11868 15.1316 7.48685 14.8075 7.86514C14.4835 8.24343 14.2139 8.55658 14.2085 8.56103C14.203 8.56548 14.1336 8.64602 14.0541 8.74003C13.9152 8.90446 13.7738 9.06904 13.1252 9.82115C12.8406 10.1513 12.826 10.1655 12.802 10.1351C12.7882 10.1176 11.9539 8.90433 10.9481 7.43889L9.11942 4.77445L6.97804 4.77427L4.83667 4.77411L4.92455 4.89953ZM6.59586 5.77331C6.61194 5.79786 7.01203 6.37141 7.48496 7.04788C8.38189 8.33083 11.9065 13.3754 14.1732 16.6204C14.8975 17.6573 15.499 18.5149 15.5098 18.5261C15.5252 18.5421 15.7361 18.5456 16.4953 18.5423L17.4611 18.5381L14.9337 14.9211C13.5437 12.9318 11.5311 10.0515 10.4613 8.52057L8.51629 5.73702L7.54147 5.73285L6.56664 5.72867L6.59586 5.77331Z" fill="#4B5563"/>
</svg>