<svg xmlns="http://www.w3.org/2000/svg" width="28" height="28" viewBox="0 0 28 28" fill="none">
  <g clip-path="url(#clip0_156_22)">
    <path fill-rule="evenodd" clip-rule="evenodd" d="M5.74516 5.71612C5.80156 5.79659 7.10765 7.69764 8.64759 9.94066C10.1875 12.1837 11.6118 14.258 11.8127 14.5503C12.0136 14.8426 12.1779 15.0875 12.1779 15.0947C12.1779 15.1019 12.1031 15.1941 12.0117 15.2997C11.9203 15.4052 11.6628 15.704 11.4395 15.9636C11.2162 16.2232 10.8398 16.6608 10.603 16.9359C10.3662 17.2111 9.94969 17.6954 9.67734 18.0121C9.405 18.3289 8.91526 18.8983 8.58902 19.2775C7.58002 20.4505 7.43441 20.6199 6.66633 21.5145C6.2562 21.9922 5.86292 22.4489 5.79238 22.5294C5.72184 22.61 5.66413 22.6843 5.66413 22.6947C5.66413 22.7068 5.92173 22.7134 6.38992 22.7134H7.11569L7.9136 21.7835C8.35247 21.2721 8.78538 20.7687 8.87563 20.6649C9.0708 20.4403 10.5592 18.7086 10.6843 18.5604C10.7322 18.5037 10.8017 18.423 10.8389 18.3811C10.876 18.3391 11.1689 17.9989 11.4896 17.6251C11.8103 17.2513 12.0816 16.9362 12.0923 16.925C12.1031 16.9139 12.2729 16.7163 12.4696 16.4861C12.6664 16.2558 12.8335 16.0674 12.8409 16.0674C12.8483 16.0674 13.8591 17.5309 15.0872 19.3196C16.3152 21.1083 17.3418 22.6035 17.3686 22.6422L17.4173 22.7126L19.9069 22.713C21.9542 22.7133 22.3947 22.709 22.3869 22.6886C22.3786 22.667 21.1858 20.9272 18.1258 16.4734C15.923 13.2671 15.63 12.8363 15.6385 12.8144C15.6466 12.7932 15.9467 12.4422 17.9193 10.1468C18.2576 9.75305 18.7241 9.20998 18.9558 8.93999C19.1875 8.67 19.4215 8.39811 19.4757 8.33581C19.53 8.2735 19.8151 7.94215 20.1094 7.59946C20.4036 7.25678 20.9039 6.6745 21.221 6.30552C21.5382 5.93653 21.8093 5.62005 21.8235 5.60221C21.848 5.57168 21.8065 5.56979 21.1123 5.56979H20.3751L20.0472 5.95213C19.6108 6.46096 18.8219 7.37854 18.5979 7.63783C18.499 7.7524 18.3755 7.89638 18.3236 7.95778C18.2717 8.01918 18.1692 8.13785 18.096 8.22149C18.0227 8.30513 17.6534 8.73466 17.2753 9.176C16.8972 9.61733 16.5827 9.98267 16.5764 9.98786C16.5701 9.99306 16.489 10.087 16.3964 10.1967C16.2342 10.3885 16.0693 10.5805 15.3126 11.458C14.9805 11.8432 14.9635 11.8597 14.9355 11.8243C14.9194 11.8039 13.9461 10.3884 12.7727 8.6787L10.6392 5.57019L8.14091 5.56998L5.64264 5.56979L5.74516 5.71612ZM7.69502 6.73552C7.71379 6.76416 8.18056 7.43331 8.73231 8.22252C9.77873 9.71931 13.8907 15.6046 16.5352 19.3904C17.3803 20.6002 18.082 21.6007 18.0946 21.6138C18.1126 21.6324 18.3587 21.6365 19.2444 21.6327L20.3711 21.6278L17.4225 17.408C15.8008 15.0871 13.4528 11.7268 12.2047 9.94066L9.93553 6.69319L8.79824 6.68832L7.66094 6.68345L7.69502 6.73552Z" fill="white"/>
    <path fill-rule="evenodd" clip-rule="evenodd" d="M0 14C0 21.7312 6.2735 27.9979 14.0047 27.9953C21.7356 27.9927 28.0116 21.7262 28.0142 13.9953C28.0168 6.26667 21.7381 0 14.0095 0C6.27746 0 0 6.26802 0 14ZM0.00938368 14.0094C0.00938368 21.7094 0.0115361 24.8594 0.0141605 21.0094C0.0167849 17.1594 0.0167849 10.8594 0.0141605 7.00944C0.0115361 3.15943 0.00938368 6.30944 0.00938368 14.0094ZM5.74523 5.71612C5.80163 5.79659 7.10771 7.69764 8.64766 9.94066C10.1876 12.1837 11.6119 14.258 11.8128 14.5503C12.0137 14.8425 12.178 15.0875 12.178 15.0947C12.178 15.1019 12.1032 15.1941 12.0118 15.2997C11.9204 15.4052 11.6629 15.704 11.4396 15.9636C11.2163 16.2232 10.8399 16.6608 10.6031 16.9359C10.3663 17.2111 9.94976 17.6954 9.67741 18.0121C9.40507 18.3289 8.91533 18.8983 8.58909 19.2775C7.58009 20.4505 7.43448 20.6199 6.6664 21.5145C6.25627 21.9922 5.86299 22.4489 5.79245 22.5294C5.72191 22.61 5.66419 22.6843 5.66419 22.6947C5.66419 22.7068 5.9218 22.7134 6.38999 22.7134C6.85067 22.7134 7.28838 22.5122 7.58838 22.1626L7.91367 21.7835C8.35253 21.2721 8.78545 20.7687 8.8757 20.6649C9.07087 20.4403 10.5592 18.7085 10.6843 18.5604C10.7322 18.5037 10.8018 18.423 10.8389 18.3811C10.8761 18.3391 11.1689 17.9989 11.4897 17.6251C11.8104 17.2512 12.0816 16.9362 12.0924 16.925C12.1031 16.9138 12.2729 16.7163 12.4697 16.4861C12.6665 16.2558 12.8336 16.0674 12.841 16.0674C12.8484 16.0674 13.8592 17.5309 15.0872 19.3196C16.3152 21.1083 17.3419 22.6035 17.3687 22.6422C17.3992 22.6863 17.4494 22.7126 17.503 22.7126L19.9069 22.713C21.9542 22.7133 22.3948 22.709 22.387 22.6886C22.3787 22.667 21.1859 20.9272 18.1259 16.4734C15.923 13.2671 15.6301 12.8363 15.6385 12.8144C15.6467 12.7931 15.9467 12.4422 17.9193 10.1468C18.2577 9.75304 18.7242 9.20998 18.9559 8.93999C19.1876 8.66999 19.4216 8.39811 19.4758 8.33581C19.53 8.2735 19.8152 7.94214 20.1094 7.59946C20.4037 7.25678 20.9039 6.6745 21.2211 6.30551C21.5382 5.93653 21.8094 5.62005 21.8236 5.60221C21.848 5.57168 21.8066 5.56979 21.1123 5.56979H20.8788C20.5591 5.56979 20.2554 5.70945 20.0472 5.95212C19.6109 6.46096 18.822 7.37854 18.598 7.63783C18.4991 7.75239 18.3756 7.89638 18.3237 7.95778C18.2717 8.01918 18.1693 8.13784 18.096 8.22148C18.0227 8.30512 17.6535 8.73466 17.2754 9.17599C16.8973 9.61733 16.5828 9.98267 16.5765 9.98786C16.5701 9.99305 16.4891 10.087 16.3964 10.1967C16.2343 10.3885 16.0693 10.5805 15.3127 11.458C14.9806 11.8432 14.9636 11.8597 14.9356 11.8243C14.9195 11.8039 13.9462 10.3884 12.7728 8.6787L12.053 7.62997C11.1681 6.34067 9.70475 5.57011 8.14098 5.56998L5.82137 5.5698C5.74614 5.5698 5.70206 5.6545 5.74523 5.71612ZM7.69509 6.73552C7.71386 6.76416 8.18063 7.43331 8.73237 8.22252C9.7788 9.7193 13.8908 15.6046 16.5353 19.3904C17.3804 20.6002 18.0821 21.6007 18.0947 21.6138C18.1127 21.6324 18.3588 21.6365 19.2444 21.6327C19.7207 21.6306 19.9986 21.0945 19.7258 20.7041L17.4226 17.408C15.8009 15.0871 13.4528 11.7268 12.2048 9.94066L10.587 7.62545C10.1786 7.04089 9.51143 6.69137 8.79831 6.68832L7.72324 6.68371C7.69657 6.6836 7.68048 6.7132 7.69509 6.73552Z" fill="black"/>
  </g>
  <defs>
    <clipPath id="clip0_156_22">
      <rect width="28" height="28" fill="white"/>
    </clipPath>
  </defs>
</svg>